<svg width="41" height="41" viewBox="0 0 41 41" fill="none" xmlns="http://www.w3.org/2000/svg">
<path d="M19.9115 20.5L19.0195 41H21.9686L21.0767 20.5H19.9115Z" fill="#EDF738"/>
<path d="M19.0195 0H21.9686L21.0767 20.5H19.9115L19.0195 0Z" fill="#EDF738"/>
<path d="M40.9844 19.0325V21.9672L20.4844 21.0753V19.9244L40.9844 19.0325Z" fill="#EDF738"/>
<path d="M0 21.9671V19.0323L20.4856 19.9243V21.0752L0 21.9671Z" fill="#EDF738"/>
<path d="M36.0217 33.9509L33.9501 36.0368L20.082 20.9028L20.902 20.0828L36.0217 33.9509Z" fill="#EDF738"/>
<path d="M4.96289 7.04886L7.03447 4.96289L20.9025 20.0826L20.0825 20.9026L4.96289 7.04886Z" fill="#EDF738"/>
<path d="M33.9501 4.96289L36.0217 7.04886L20.902 20.9026L20.082 20.0826L33.9501 4.96289Z" fill="#EDF738"/>
<path d="M7.03447 36.0368L4.96289 33.9509L20.0825 20.0828L20.9025 20.9171L7.03447 36.0368Z" fill="#EDF738"/>
</svg>
