<svg width="504" height="292" viewBox="0 0 504 292" fill="none" xmlns="http://www.w3.org/2000/svg">
<g opacity="0.4" clip-path="url(#clip0_248_254)">
<path d="M61.8438 50.4515C61.8438 50.4515 61.8614 50.4515 61.879 50.4515C69.6074 46.5924 77.9886 44.4858 86.6873 44.4858C127.182 44.4858 160.001 89.9277 160.001 146.026C160.001 202.125 127.182 247.549 86.6873 247.549C78.0062 247.549 69.6603 245.478 61.9496 241.637C61.9143 241.637 61.879 241.637 61.8614 241.584" stroke="#8E8E8E"/>
<path d="M59.7266 51.8855C60.6088 51.7616 61.5263 51.7085 62.4438 51.7085C87.9403 51.7085 108.62 93.8932 108.62 145.991C108.62 198.089 87.9403 240.274 62.4438 240.274C61.5263 240.274 60.6264 240.221 59.7266 240.097" stroke="#8E8E8E"/>
<path d="M74.4258 42.6447C74.4258 42.6447 74.4434 42.6447 74.4611 42.6447C85.436 37.9536 97.399 35.3867 109.891 35.3867C164.695 35.3867 209.125 84.9001 209.125 146.026C209.125 207.152 164.678 256.648 109.891 256.648C97.4343 256.648 85.5595 254.099 74.5846 249.461C74.5669 249.461 74.5493 249.426 74.514 249.426" stroke="#8E8E8E"/>
<path d="M90.0059 34.4131C103.433 29.722 117.937 27.1729 133.076 27.1729C202.19 27.1729 258.229 80.3507 258.229 146.009C258.229 211.667 202.19 264.844 133.076 264.844C118.008 264.844 103.575 262.331 90.1823 257.693C90.1647 257.693 90.1117 257.693 90.0941 257.657" stroke="#8E8E8E"/>
<path d="M100.609 29.4921C117.813 23.8451 136.587 20.7295 156.26 20.7295C239.702 20.7295 307.333 76.7751 307.333 146.009C307.333 215.243 239.702 271.271 156.26 271.271C136.587 271.271 117.813 268.155 100.609 262.508H100.592" stroke="#8E8E8E"/>
<path d="M113.084 24.394H113.102C133.587 18.2513 155.996 14.8701 179.463 14.8701C277.196 14.8701 356.456 73.5357 356.456 146.009C356.456 218.482 277.196 277.148 179.463 277.148C156.049 277.148 133.693 273.784 113.243 267.659" stroke="#8E8E8E"/>
<path d="M136.252 16.4983C136.252 16.4983 136.27 16.4983 136.287 16.4983C157.073 11.6479 179.411 9.01025 202.649 9.01025C314.709 9.01025 405.544 70.3134 405.544 146.009C405.544 221.704 314.709 282.989 202.649 282.989C179.411 282.989 157.073 280.352 136.287 275.501C136.27 275.501 136.27 275.501 136.252 275.501" stroke="#8E8E8E"/>
<path d="M164.43 282.706C164.43 282.706 164.447 282.706 164.465 282.706C183.98 286.052 204.589 287.858 225.833 287.858C352.203 287.858 454.648 224.359 454.648 145.991C454.648 67.6228 352.221 4.12451 225.85 4.12451C204.589 4.12451 183.998 5.93015 164.483 9.27589C164.465 9.27589 164.447 9.27589 164.447 9.27589" stroke="#8E8E8E"/>
<path d="M251.999 291.77C391.048 291.77 503.77 226.502 503.77 145.991C503.77 65.4798 391.048 0.212402 251.999 0.212402C112.95 0.212402 0.228516 65.4798 0.228516 145.991C0.228516 226.502 112.95 291.77 251.999 291.77Z" stroke="#8E8E8E"/>
</g>
<defs>
<clipPath id="clip0_248_254">
<rect width="504" height="292" fill="white"/>
</clipPath>
</defs>
</svg>
