<svg version="1.1" id="Layer_1" xmlns="http://www.w3.org/2000/svg" xmlns:xlink="http://www.w3.org/1999/xlink" x="0px" y="0px"
	 width="100%" viewBox="0 0 216 216" enable-background="new 0 0 216 216" xml:space="preserve">
<path fill="#020202" opacity="1.000000" stroke="none" 
	d="
M217.000000,56.000000 
	C217.000000,110.000000 217.000000,163.500000 217.000000,217.000000 
	C145.000000,217.000000 73.000000,217.000000 1.000000,217.000000 
	C1.000000,145.000000 1.000000,73.000000 1.000000,1.000000 
	C73.000000,1.000000 145.000000,1.000000 217.000000,1.000000 
	C217.000000,19.166666 217.000000,37.333332 217.000000,56.000000 
M37.354702,20.007801 
	C37.082634,20.207220 36.890835,20.466106 36.354446,21.012400 
	C36.088043,21.210278 35.896282,21.464466 35.345108,21.997978 
	C35.073761,22.197153 34.882431,22.455572 34.341888,22.999802 
	C34.067875,23.194778 33.876469,23.451378 33.339046,23.996893 
	C33.065197,24.191797 32.873688,24.448204 32.336395,24.994045 
	C32.062637,25.188873 31.871012,25.445126 31.333410,25.991985 
	C31.059385,26.187250 30.867847,26.444042 30.325338,27.034666 
	C30.180330,27.334265 30.035322,27.633865 29.242714,28.114281 
	C22.466007,34.830994 15.689301,41.547703 8.319765,49.002136 
	C8.115054,50.631874 7.732485,52.261497 7.731457,53.891361 
	C7.699848,103.990906 7.693554,154.090485 7.757337,204.189972 
	C7.759503,205.891434 8.524610,207.591919 9.676943,209.657089 
	C10.668641,209.741760 11.660321,209.900284 12.652041,209.900513 
	C62.432087,209.912674 112.212135,209.913788 161.992188,209.897827 
	C163.314865,209.897400 164.637482,209.695435 166.597168,209.630600 
	C168.053757,208.423080 169.510345,207.215546 171.563034,205.686951 
	C177.032013,200.186798 182.500977,194.686630 188.420685,188.683807 
	C189.997910,187.124252 191.575150,185.564713 193.494202,183.724655 
	C193.661346,183.324203 193.828491,182.923752 194.556717,182.240433 
	C194.754196,182.170639 194.951675,182.100830 195.608932,181.575912 
	C197.733871,179.228088 199.858810,176.880264 202.489853,174.084991 
	C203.339340,173.129745 204.188828,172.174500 205.820023,170.951355 
	C206.186035,169.247269 206.869888,167.543564 206.871841,165.839066 
	C206.928955,116.066750 206.921158,66.294365 206.905334,16.521996 
	C206.904770,14.752652 206.716873,12.983368 206.593506,10.813673 
	C204.100693,10.813673 202.128632,10.813672 200.156570,10.813674 
	C151.050049,10.813719 101.943535,10.807250 52.837021,10.828370 
	C49.540611,10.829787 45.685654,9.377813 43.404205,14.048223 
	C43.119350,14.242635 42.928112,14.505234 42.390270,15.047376 
	C42.109547,15.240523 41.919731,15.500145 41.382217,16.039211 
	C41.103149,16.231834 40.910702,16.489229 40.375122,17.031914 
	C40.105949,17.228630 39.915394,17.484009 39.366375,18.018745 
	C39.093369,18.217958 38.901451,18.477201 38.363575,19.021019 
	C38.096016,19.218409 37.904854,19.473135 37.354702,20.007801 
z"/>
<path fill="#040404" opacity="1.000000" stroke="none" 
	d="
M187.969971,189.186493 
	C182.500977,194.686630 177.032013,200.186798 170.846542,205.826035 
	C169.421371,204.602570 168.118134,203.248367 168.098846,201.876144 
	C167.954971,191.634720 168.065277,181.389740 168.555130,171.098663 
	C180.052750,171.051468 191.091125,171.051468 202.255295,171.051468 
	C202.136536,172.573685 202.060135,173.553055 201.983734,174.532440 
	C199.858810,176.880264 197.733871,179.228088 195.233948,181.610413 
	C194.582062,181.538483 194.305145,181.432053 194.028229,181.325607 
	C194.017380,181.724838 194.006516,182.124069 193.995636,182.523300 
	C193.828491,182.923752 193.661346,183.324203 193.089142,183.646729 
	C191.112701,185.441360 189.541336,187.313919 187.969971,189.186493 
z"/>
<path fill="#515150" opacity="1.000000" stroke="none" 
	d="
M43.849407,13.834774 
	C45.685654,9.377813 49.540611,10.829787 52.837021,10.828370 
	C101.943535,10.807250 151.050049,10.813719 200.156570,10.813674 
	C202.128632,10.813672 204.100693,10.813673 206.593506,10.813673 
	C206.716873,12.983368 206.904770,14.752652 206.905334,16.521996 
	C206.921158,66.294365 206.928955,116.066750 206.871841,165.839066 
	C206.869888,167.543564 206.186035,169.247269 205.396011,170.693192 
	C204.949936,169.912003 204.927887,169.388962 204.926910,168.407990 
	C204.961655,116.651619 204.975281,65.353195 204.863647,13.781633 
	C204.132416,13.011606 203.526459,12.514723 202.456879,12.026833 
	C150.778366,12.035827 99.563446,12.035827 48.078159,12.035827 
	C48.078159,24.918272 48.078159,36.898991 48.066090,49.262085 
	C48.074898,50.153812 48.095776,50.663174 48.085583,51.624367 
	C48.061756,56.556572 48.068996,61.036945 47.752556,65.625931 
	C46.991024,65.861763 46.553173,65.988976 46.084248,65.644112 
	C46.007385,60.489552 45.961594,55.807068 45.927162,50.762421 
	C45.948975,49.917358 45.959431,49.434452 46.002678,48.487831 
	C46.044132,38.080456 46.113617,28.136017 45.985298,18.194132 
	C45.969074,16.936804 44.914925,15.692870 44.219437,14.290053 
	C44.097225,14.137377 43.849407,13.834774 43.849407,13.834774 
z"/>
<path fill="#4F4F4F" opacity="1.000000" stroke="none" 
	d="
M168.095886,171.145874 
	C168.065277,181.389740 167.954971,191.634720 168.098846,201.876144 
	C168.118134,203.248367 169.421371,204.602570 170.548492,205.986572 
	C169.510345,207.215546 168.053757,208.423080 166.094345,209.457962 
	C165.075623,208.901062 164.559723,208.516800 164.446808,208.018494 
	C165.242661,206.242386 165.963562,204.582840 165.976196,202.917923 
	C166.071274,190.378433 166.036728,177.837875 166.024460,165.297668 
	C165.987213,127.240501 165.941711,89.183327 166.027420,50.843063 
	C166.427460,50.001202 166.699539,49.442429 167.246155,48.809757 
	C167.690994,48.819050 167.861313,48.902248 168.038132,49.454994 
	C168.059311,89.572708 168.073975,129.220871 168.075836,169.248260 
	C168.073975,170.133606 168.084930,170.639740 168.095886,171.145874 
z"/>
<path fill="#3B3B3B" opacity="1.000000" stroke="none" 
	d="
M164.043823,208.132553 
	C164.559723,208.516800 165.075623,208.901062 165.775818,209.436386 
	C164.637482,209.695435 163.314865,209.897400 161.992188,209.897827 
	C112.212135,209.913788 62.432087,209.912674 12.652041,209.900513 
	C11.660321,209.900284 10.668641,209.741760 9.463078,209.202850 
	C9.571628,208.488998 9.894042,208.229355 10.666756,207.952942 
	C46.935471,207.939407 82.753906,207.925079 118.572296,207.954239 
	C133.729507,207.966568 148.886658,208.070328 164.043823,208.132553 
z"/>
<path fill="#5D5D5D" opacity="1.000000" stroke="none" 
	d="
M10.216457,207.969727 
	C9.894042,208.229355 9.571628,208.488998 9.091656,209.020752 
	C8.524610,207.591919 7.759503,205.891434 7.757337,204.189972 
	C7.693554,154.090485 7.699848,103.990906 7.731457,53.891361 
	C7.732485,52.261497 8.115054,50.631874 8.646573,49.114891 
	C9.021701,49.863312 9.070022,50.498978 9.074704,51.591690 
	C9.020317,101.827118 9.000536,151.605499 9.041325,201.383865 
	C9.042582,202.916946 9.672831,204.449524 10.015492,206.263733 
	C10.047004,206.730789 10.072860,206.916458 10.098624,207.323044 
	C10.098532,207.543945 10.216457,207.969727 10.216457,207.969727 
z"/>
<path fill="#3B3B3B" opacity="1.000000" stroke="none" 
	d="
M9.118342,51.134647 
	C9.070022,50.498978 9.021701,49.863312 8.942987,48.746029 
	C15.689301,41.547703 22.466007,34.830994 29.622154,28.059681 
	C30.001593,28.005079 30.045818,28.129799 29.978718,28.453049 
	C23.778517,35.265862 17.645414,41.755421 10.844556,48.951550 
	C23.392939,48.951550 34.681412,48.951550 45.969887,48.951550 
	C45.959431,49.434452 45.948975,49.917358 45.465755,50.736420 
	C33.034775,51.093269 21.076559,51.113956 9.118342,51.134647 
z"/>
<path fill="#3B3B3B" opacity="1.000000" stroke="none" 
	d="
M168.555115,171.098663 
	C168.084930,170.639740 168.073975,170.133606 168.534607,169.303802 
	C180.972748,168.942062 192.939285,168.903992 204.905823,168.865936 
	C204.927887,169.388962 204.949936,169.912003 205.005157,170.827133 
	C204.188828,172.174500 203.339340,173.129745 202.236786,174.308716 
	C202.060135,173.553055 202.136536,172.573685 202.255295,171.051468 
	C191.091125,171.051468 180.052750,171.051468 168.555115,171.098663 
z"/>
<path fill="#3B3B3B" opacity="1.000000" stroke="none" 
	d="
M188.195328,188.935150 
	C189.541336,187.313919 191.112701,185.441360 192.918213,183.786987 
	C191.575150,185.564713 189.997910,187.124252 188.195328,188.935150 
z"/>
<path fill="#3B3B3B" opacity="1.000000" stroke="none" 
	d="
M194.276184,182.381866 
	C194.006516,182.124069 194.017380,181.724838 194.028229,181.325607 
	C194.305145,181.432053 194.582062,181.538483 195.004059,181.837967 
	C194.951675,182.100830 194.754196,182.170639 194.276184,182.381866 
z"/>
<path fill="#515150" opacity="1.000000" stroke="none" 
	d="
M42.830490,14.836019 
	C42.928112,14.505234 43.119350,14.242635 43.626808,13.941498 
	C43.849407,13.834774 44.097225,14.137377 44.074577,14.460897 
	C43.849575,15.010462 43.618629,15.202051 43.227058,15.228279 
	C43.095024,15.097371 42.830490,14.836019 42.830490,14.836019 
z"/>
<path fill="#515150" opacity="1.000000" stroke="none" 
	d="
M41.820816,15.826239 
	C41.919731,15.500145 42.109547,15.240523 42.610382,14.941697 
	C42.830490,14.836019 43.095024,15.097371 43.086380,15.418989 
	C42.871010,15.984685 42.631462,16.190582 42.224602,16.225210 
	C42.090107,16.092121 41.820816,15.826239 41.820816,15.826239 
z"/>
<path fill="#515150" opacity="1.000000" stroke="none" 
	d="
M40.804867,16.811392 
	C40.910702,16.489229 41.103149,16.231834 41.601517,15.932725 
	C41.820816,15.826239 42.090107,16.092121 42.084328,16.416437 
	C41.871834,16.985155 41.632038,17.191038 41.220642,17.221603 
	C41.082108,17.084808 40.804867,16.811392 40.804867,16.811392 
z"/>
<path fill="#515150" opacity="1.000000" stroke="none" 
	d="
M38.790615,18.796471 
	C38.901451,18.477201 39.093369,18.217958 39.723785,18.048527 
	C40.081192,18.078310 40.359074,18.358419 40.219231,18.550137 
	C39.872669,18.986601 39.632248,19.191881 39.216263,19.217373 
	C39.074398,19.077055 38.790615,18.796471 38.790615,18.796471 
z"/>
<path fill="#515150" opacity="1.000000" stroke="none" 
	d="
M34.771122,22.773235 
	C34.882431,22.455572 35.073761,22.197153 35.704803,22.030008 
	C36.064499,22.062038 36.349751,22.349195 36.212753,22.544319 
	C35.868023,22.984905 35.624355,23.187044 35.201279,23.202770 
	C35.057804,23.059681 34.771122,22.773235 34.771122,22.773235 
z"/>
<path fill="#515150" opacity="1.000000" stroke="none" 
	d="
M33.767670,23.769602 
	C33.876469,23.451378 34.067875,23.194778 34.556503,22.886518 
	C34.771122,22.773235 35.057804,23.059681 35.064064,23.396969 
	C34.864037,23.981192 34.620506,24.183237 34.196640,24.197773 
	C34.053543,24.055159 33.767670,23.769602 33.767670,23.769602 
z"/>
<path fill="#515150" opacity="1.000000" stroke="none" 
	d="
M32.764519,24.766115 
	C32.873688,24.448204 33.065197,24.191797 33.553360,23.883247 
	C33.767670,23.769602 34.053543,24.055159 34.060280,24.392868 
	C33.860832,24.978331 33.616394,25.179636 33.191315,25.192490 
	C33.048931,25.050484 32.764519,24.766115 32.764519,24.766115 
z"/>
<path fill="#515150" opacity="1.000000" stroke="none" 
	d="
M31.761522,25.762804 
	C31.871012,25.445126 32.062637,25.188873 32.550457,24.880081 
	C32.764519,24.766115 33.048931,25.050484 33.055973,25.388527 
	C32.857014,25.975187 32.611649,26.175619 32.185471,26.186699 
	C32.044022,26.045532 31.761522,25.762804 31.761522,25.762804 
z"/>
<path fill="#515150" opacity="1.000000" stroke="none" 
	d="
M30.758793,26.762363 
	C30.867847,26.444042 31.059385,26.187250 31.547466,25.877396 
	C31.761522,25.762804 32.044022,26.045532 32.050865,26.384195 
	C31.851370,26.973169 31.604008,27.172604 31.176435,27.181444 
	C31.037245,27.041727 30.758793,26.762363 30.758793,26.762363 
z"/>
<path fill="#515150" opacity="1.000000" stroke="none" 
	d="
M29.945953,27.969273 
	C30.035322,27.633865 30.180330,27.334265 30.542065,26.898514 
	C30.758793,26.762363 31.037245,27.041727 31.015518,27.389782 
	C30.677801,27.868490 30.361809,27.999144 30.045818,28.129799 
	C30.045818,28.129799 30.001593,28.005079 29.945953,27.969273 
z"/>
<path fill="#515150" opacity="1.000000" stroke="none" 
	d="
M39.942329,17.938181 
	C39.915394,17.484009 40.105949,17.228630 40.589996,16.921654 
	C40.804867,16.811392 41.082108,17.084808 41.080612,17.413086 
	C40.872437,17.985947 40.632423,18.191631 40.359074,18.358419 
	C40.359074,18.358419 40.081192,18.078310 39.942329,17.938181 
z"/>
<path fill="#515150" opacity="1.000000" stroke="none" 
	d="
M36.779301,20.784458 
	C36.890835,20.466106 37.082634,20.207220 37.713905,20.039192 
	C38.073109,20.070585 38.356144,20.355946 38.217010,20.548401 
	C37.871201,20.986225 37.629696,21.190401 37.209839,21.211161 
	C37.066311,21.068941 36.779301,20.784458 36.779301,20.784458 
z"/>
<path fill="#515150" opacity="1.000000" stroke="none" 
	d="
M37.931602,19.927891 
	C37.904854,19.473135 38.096016,19.218409 38.577095,18.908745 
	C38.790615,18.796471 39.074398,19.077055 39.076691,19.409393 
	C38.872231,19.986713 38.631287,20.191452 38.356144,20.355946 
	C38.356144,20.355946 38.073109,20.070585 37.931602,19.927891 
z"/>
<path fill="#515150" opacity="1.000000" stroke="none" 
	d="
M35.921829,21.918503 
	C35.896282,21.464466 36.088043,21.210278 36.566872,20.898430 
	C36.779301,20.784458 37.066311,21.068941 37.071243,21.404039 
	C36.869633,21.984877 36.627491,22.188229 36.349751,22.349195 
	C36.349751,22.349195 36.064499,22.062038 35.921829,21.918503 
z"/>
<path fill="#000000" opacity="1.000000" stroke="none" 
	d="
M204.926910,168.407990 
	C192.939285,168.903992 180.972748,168.942062 168.547424,168.924576 
	C168.073975,129.220871 168.059311,89.572708 168.022552,49.463867 
	C168.000458,49.003197 167.976349,49.029827 168.237183,48.955231 
	C168.675537,48.578976 168.853058,48.277317 169.015717,47.988247 
	C169.000839,48.000835 168.975647,48.030575 169.236938,47.956291 
	C169.675644,47.579899 169.853043,47.277794 170.015594,46.988205 
	C170.000748,47.000729 169.975616,47.030323 170.238220,46.957954 
	C170.677231,46.582294 170.853653,46.279003 171.015350,45.988167 
	C171.000626,46.000618 170.975708,46.030064 171.239288,45.959248 
	C171.678513,45.584244 171.854156,45.280056 172.015137,44.988174 
	C172.000504,45.000488 171.975784,45.029667 172.240906,44.961235 
	C172.680466,44.587193 172.854935,44.281574 173.014893,43.988159 
	C173.000366,44.000366 172.975937,44.029362 173.241974,43.962460 
	C173.681702,43.589081 173.855392,43.282604 174.014664,42.988174 
	C174.000244,43.000225 173.976059,43.028961 174.243591,42.964424 
	C174.683624,42.592007 174.856125,42.284122 175.014359,41.988159 
	C175.000076,42.000080 174.976242,42.028629 175.244751,41.965721 
	C175.684937,41.594009 175.856628,41.285206 176.014160,40.988197 
	C176.000015,40.999996 175.976349,41.028225 176.246277,40.967628 
	C176.686798,40.596859 176.857376,40.286686 177.013977,39.988251 
	C177.000000,39.999989 176.976501,40.027935 177.247253,39.968754 
	C177.687897,39.598602 177.857773,39.287636 178.014252,38.988213 
	C178.000870,38.999763 177.979324,39.027798 178.315720,38.974609 
	C181.905899,35.846703 185.158493,32.770725 188.413742,29.697552 
	C193.937912,24.482363 199.463776,19.268940 204.988922,14.054777 
	C204.975281,65.353195 204.961655,116.651619 204.926910,168.407990 
z"/>
<path fill="#000000" opacity="1.000000" stroke="none" 
	d="
M9.074704,51.591690 
	C21.076559,51.113956 33.034775,51.093269 45.454399,51.098583 
	C45.961594,55.807068 46.007385,60.489552 45.953156,66.001602 
	C42.736217,72.855942 45.302055,78.742386 46.183968,85.151413 
	C46.100273,114.397728 46.119949,143.159943 45.868141,172.062622 
	C44.767330,172.791336 43.938000,173.379593 42.764427,174.039825 
	C33.682487,182.596558 24.939230,191.075623 16.232962,199.592484 
	C15.962384,199.857178 16.074839,200.513412 16.003895,200.992981 
	C15.999077,200.998856 15.988044,201.009262 15.706182,201.018402 
	C15.285475,201.348175 15.146627,201.668793 15.003489,201.994415 
	C14.999197,201.999390 14.989311,202.007889 14.706791,202.017349 
	C14.284844,202.348251 14.145419,202.669678 14.002651,202.995255 
	C13.999310,202.999390 13.991002,203.006088 13.707728,203.016083 
	C13.284399,203.348282 13.144343,203.670502 13.001897,203.996048 
	C12.999505,203.999390 12.992762,204.004272 12.708630,204.014801 
	C12.283553,204.348663 12.142608,204.671982 12.000708,204.997650 
	C11.999753,205.000000 11.995157,205.001694 11.709970,205.013229 
	C11.282564,205.349457 11.140347,205.674133 10.999084,205.999420 
	C11.000038,206.000000 10.998497,205.997360 10.752672,205.905487 
	C10.341177,205.869843 10.175508,205.926086 10.009838,205.982330 
	C9.672831,204.449524 9.042582,202.916946 9.041325,201.383865 
	C9.000536,151.605499 9.020317,101.827118 9.074704,51.591690 
z"/>
<path fill="#010100" opacity="1.000000" stroke="none" 
	d="
M168.016037,48.994320 
	C167.861313,48.902248 167.690994,48.819050 166.781387,48.856895 
	C151.728760,48.983772 137.415436,48.989613 122.952332,48.660530 
	C121.770370,45.890461 120.876793,43.384769 119.680031,41.033386 
	C116.080261,33.960556 112.661285,26.762310 108.487473,20.037725 
	C107.397682,18.281939 103.617653,17.003933 101.424110,17.408621 
	C98.247749,17.994627 95.930534,20.931152 96.822861,24.571995 
	C97.586815,27.689053 98.868141,30.798838 100.519516,33.552715 
	C103.490280,38.506855 106.909584,43.192024 109.830978,48.288750 
	C89.039688,48.685196 68.558922,48.782455 48.078159,48.879711 
	C48.078159,36.898991 48.078159,24.918272 48.078159,12.035827 
	C99.563446,12.035827 150.778366,12.035827 202.404922,12.358067 
	C195.514587,20.028954 188.181854,27.347549 180.941162,34.756100 
	C179.747070,35.977871 178.956421,37.593952 177.979324,39.027802 
	C177.979324,39.027798 178.000870,38.999763 177.718292,39.008522 
	C177.282654,39.354164 177.129578,39.691051 176.976501,40.027935 
	C176.976501,40.027935 177.000000,39.999989 176.717834,40.008507 
	C176.282547,40.354092 176.129440,40.691158 175.976349,41.028225 
	C175.976349,41.028225 176.000015,40.999996 175.717697,41.008163 
	C175.282333,41.353764 175.129288,41.691196 174.976242,42.028629 
	C174.976242,42.028629 175.000076,42.000080 174.717743,42.008102 
	C174.282288,42.353737 174.129181,42.691349 173.976059,43.028961 
	C173.976059,43.028961 174.000244,43.000225 173.717789,43.007927 
	C173.282196,43.353542 173.129074,43.691452 172.975937,44.029362 
	C172.975937,44.029362 173.000366,44.000366 172.717926,44.008003 
	C172.282257,44.353649 172.129028,44.691658 171.975784,45.029667 
	C171.975784,45.029667 172.000504,45.000488 171.718002,45.007923 
	C171.282242,45.353596 171.128983,45.691830 170.975708,46.030067 
	C170.975708,46.030064 171.000626,46.000618 170.718155,46.008011 
	C170.282333,46.353710 170.128983,46.692020 169.975616,47.030327 
	C169.975616,47.030323 170.000748,47.000729 169.718109,47.007687 
	C169.282181,47.353287 169.128906,47.691929 168.975647,48.030571 
	C168.975647,48.030575 169.000839,48.000835 168.718170,48.007183 
	C168.282440,48.352295 168.129395,48.691059 167.976349,49.029823 
	C167.976349,49.029827 168.000458,49.003197 168.016037,48.994320 
z"/>
<path fill="#020201" opacity="1.000000" stroke="none" 
	d="
M48.076241,65.517319 
	C48.068996,61.036945 48.061756,56.556572 48.543339,51.579994 
	C69.941467,51.084499 90.850769,51.085213 111.958603,51.377773 
	C127.176163,81.363358 137.329391,112.770897 144.905106,145.068192 
	C145.726486,148.569946 145.771591,152.253784 146.332581,157.237366 
	C139.301361,151.274918 133.589401,146.468536 127.918045,141.614700 
	C113.009834,128.855469 96.874649,117.448029 84.926064,101.466881 
	C77.846642,91.998207 70.318596,82.861931 62.892147,73.656975 
	C59.125771,68.988625 55.315102,64.160973 48.172325,65.779678 
	C48.217846,65.681351 48.076241,65.517319 48.076241,65.517319 
z"/>
<path fill="#010101" opacity="1.000000" stroke="none" 
	d="
M36.212753,22.544319 
	C36.627491,22.188229 36.869633,21.984877 37.214767,21.546259 
	C37.629696,21.190401 37.871201,20.986225 38.217010,20.548401 
	C38.631287,20.191452 38.872231,19.986713 39.218552,19.549711 
	C39.632248,19.191881 39.872669,18.986601 40.219231,18.550137 
	C40.632423,18.191631 40.872437,17.985947 41.219143,17.549881 
	C41.632038,17.191038 41.871834,16.985155 42.218826,16.549526 
	C42.631462,16.190582 42.871010,15.984685 43.218414,15.549896 
	C43.618629,15.202051 43.849575,15.010462 44.196789,14.613573 
	C44.914925,15.692870 45.969074,16.936804 45.985298,18.194132 
	C46.113617,28.136017 46.044132,38.080456 46.002674,48.487831 
	C34.681412,48.951550 23.392939,48.951550 10.844556,48.951550 
	C17.645414,41.755421 23.778517,35.265862 29.978718,28.453049 
	C30.361809,27.999144 30.677801,27.868490 31.154709,27.529499 
	C31.604008,27.172604 31.851370,26.973169 32.192314,26.525362 
	C32.611649,26.175619 32.857014,25.975187 33.198357,25.530531 
	C33.616394,25.179636 33.860832,24.978331 34.203373,24.535482 
	C34.620506,24.183237 34.864037,23.981192 35.207535,23.540058 
	C35.624355,23.187044 35.868023,22.984905 36.212753,22.544319 
z"/>
<path fill="#3B3B3B" opacity="1.000000" stroke="none" 
	d="
M111.760071,51.085930 
	C90.850769,51.085213 69.941467,51.084499 48.574409,51.128159 
	C48.095776,50.663174 48.074898,50.153812 48.066090,49.262085 
	C68.558922,48.782455 89.039688,48.685196 110.080505,48.449860 
	C111.013725,49.236492 111.386894,50.161209 111.760071,51.085930 
z"/>
<path fill="#4A4B4A" opacity="1.000000" stroke="none" 
	d="
M178.315720,38.974609 
	C178.956421,37.593952 179.747070,35.977871 180.941162,34.756100 
	C188.181854,27.347549 195.514587,20.028954 202.868530,12.349073 
	C203.526459,12.514723 204.132416,13.011606 204.863647,13.781635 
	C199.463776,19.268940 193.937912,24.482363 188.413742,29.697552 
	C185.158493,32.770725 181.905899,35.846703 178.315720,38.974609 
z"/>
<path fill="#E0E57A" opacity="1.000000" stroke="none" 
	d="
M46.287338,84.667305 
	C45.302055,78.742386 42.736217,72.855942 45.984230,66.473679 
	C46.553173,65.988976 46.991024,65.861763 47.752560,65.625931 
	C48.076241,65.517319 48.217846,65.681351 48.139343,66.254837 
	C48.024979,73.932892 47.989117,81.037468 47.734406,87.899422 
	C47.106148,86.660301 46.696743,85.663803 46.287338,84.667305 
z"/>
<path fill="#010100" opacity="1.000000" stroke="none" 
	d="
M43.108673,173.967834 
	C43.938000,173.379593 44.767330,172.791336 46.222961,171.864197 
	C56.174957,171.351288 65.500648,171.177292 74.976334,171.340271 
	C76.870537,175.569672 78.547577,179.494125 80.381561,183.343781 
	C81.701370,186.114151 83.227249,188.733322 87.121101,187.295273 
	C90.962250,185.876678 92.536568,183.089783 91.830368,179.177734 
	C91.396423,176.773880 90.483025,174.456558 90.098747,171.800308 
	C92.381523,171.339966 94.349823,171.049805 96.319511,171.040024 
	C111.922310,170.962494 127.525375,170.938339 143.344788,170.936996 
	C143.561203,170.976212 143.997192,171.033417 144.139877,171.338837 
	C146.006012,173.134720 147.527374,175.381165 149.507736,175.910583 
	C151.639664,176.480499 154.614670,176.087509 156.454788,174.912949 
	C158.135712,173.839966 160.769913,171.749542 158.420593,168.775421 
	C158.377640,168.788635 158.458725,168.734741 158.529449,168.296875 
	C157.175430,160.682129 156.377426,153.310516 154.218552,146.361710 
	C144.326401,114.521881 134.053329,82.800407 124.390884,51.039658 
	C138.542969,51.070637 152.221207,51.098396 165.899445,51.126160 
	C165.941711,89.183327 165.987213,127.240501 166.024460,165.297668 
	C166.036728,177.837875 166.071274,190.378433 165.976196,202.917923 
	C165.963562,204.582840 165.242661,206.242386 164.446808,208.018494 
	C148.886658,208.070328 133.729507,207.966568 118.572296,207.954239 
	C82.753906,207.925079 46.935471,207.939407 10.666756,207.952942 
	C10.216457,207.969727 10.098532,207.543945 10.332506,207.217834 
	C10.710486,206.593597 10.854490,206.295471 10.998496,205.997360 
	C10.998497,205.997360 11.000038,206.000000 11.258635,205.947083 
	C11.676541,205.596680 11.835851,205.299179 11.995159,205.001694 
	C11.995157,205.001694 11.999753,205.000000 12.260716,204.948792 
	C12.678707,204.599823 12.835734,204.302048 12.992762,204.004272 
	C12.992762,204.004272 12.999505,203.999390 13.262243,203.949738 
	C13.680320,203.602097 13.835659,203.304092 13.991000,203.006088 
	C13.991002,203.006088 13.999310,202.999390 14.263950,202.951920 
	C14.682166,202.605591 14.835740,202.306747 14.989313,202.007889 
	C14.989311,202.007889 14.999197,201.999390 15.265779,201.953979 
	C15.684257,201.608810 15.836152,201.309036 15.988046,201.009262 
	C15.988044,201.009262 15.999077,200.998856 16.343855,200.968933 
	C24.459295,193.417328 32.261513,185.927689 39.969055,178.341858 
	C41.229557,177.101257 42.072659,175.436539 43.108673,173.967834 
z"/>
<path fill="#3B3B3B" opacity="1.000000" stroke="none" 
	d="
M166.027420,50.843063 
	C152.221207,51.098396 138.542969,51.070637 124.115768,50.900429 
	C123.278572,50.170471 123.190338,49.582966 123.102112,48.995453 
	C137.415436,48.989613 151.728760,48.983772 166.506851,48.930794 
	C166.699539,49.442429 166.427460,50.001202 166.027420,50.843063 
z"/>
<path fill="#3B3B3B" opacity="1.000000" stroke="none" 
	d="
M10.752670,205.905487 
	C10.854490,206.295471 10.710486,206.593597 10.332600,206.996918 
	C10.072860,206.916458 10.047004,206.730789 10.015493,206.263733 
	C10.175508,205.926086 10.341177,205.869843 10.752670,205.905487 
z"/>
<path fill="#4A4B4A" opacity="1.000000" stroke="none" 
	d="
M174.243591,42.964424 
	C174.129181,42.691349 174.282288,42.353737 174.732025,41.996178 
	C174.856125,42.284122 174.683624,42.592007 174.243591,42.964424 
z"/>
<path fill="#4A4B4A" opacity="1.000000" stroke="none" 
	d="
M177.247253,39.968754 
	C177.129578,39.691051 177.282654,39.354164 177.731689,38.996971 
	C177.857773,39.287636 177.687897,39.598602 177.247253,39.968754 
z"/>
<path fill="#4A4B4A" opacity="1.000000" stroke="none" 
	d="
M176.246277,40.967628 
	C176.129440,40.691158 176.282547,40.354092 176.731812,39.996769 
	C176.857376,40.286686 176.686798,40.596859 176.246277,40.967628 
z"/>
<path fill="#4A4B4A" opacity="1.000000" stroke="none" 
	d="
M175.244751,41.965721 
	C175.129288,41.691196 175.282333,41.353764 175.731842,40.996365 
	C175.856628,41.285206 175.684937,41.594009 175.244751,41.965721 
z"/>
<path fill="#4A4B4A" opacity="1.000000" stroke="none" 
	d="
M173.241974,43.962460 
	C173.129074,43.691452 173.282196,43.353542 173.732208,42.995880 
	C173.855392,43.282604 173.681702,43.589081 173.241974,43.962460 
z"/>
<path fill="#4A4B4A" opacity="1.000000" stroke="none" 
	d="
M172.240906,44.961235 
	C172.129028,44.691658 172.282257,44.353649 172.732452,43.995796 
	C172.854935,44.281574 172.680466,44.587193 172.240906,44.961235 
z"/>
<path fill="#4A4B4A" opacity="1.000000" stroke="none" 
	d="
M171.239288,45.959251 
	C171.128983,45.691830 171.282242,45.353596 171.732635,44.995613 
	C171.854156,45.280056 171.678513,45.584244 171.239288,45.959251 
z"/>
<path fill="#4A4B4A" opacity="1.000000" stroke="none" 
	d="
M170.238220,46.957954 
	C170.128983,46.692020 170.282333,46.353710 170.732880,45.995560 
	C170.853653,46.279003 170.677231,46.582294 170.238220,46.957954 
z"/>
<path fill="#4A4B4A" opacity="1.000000" stroke="none" 
	d="
M169.236938,47.956287 
	C169.128906,47.691929 169.282181,47.353287 169.732941,46.995163 
	C169.853043,47.277794 169.675644,47.579899 169.236938,47.956287 
z"/>
<path fill="#4A4B4A" opacity="1.000000" stroke="none" 
	d="
M168.237183,48.955231 
	C168.129395,48.691059 168.282440,48.352295 168.733047,47.994595 
	C168.853058,48.277317 168.675537,48.578976 168.237183,48.955231 
z"/>
<path fill="#4A4B4A" opacity="1.000000" stroke="none" 
	d="
M74.826347,171.003296 
	C65.500648,171.177292 56.174957,171.351288 46.494446,171.723724 
	C46.119949,143.159943 46.100273,114.397728 46.183968,85.151413 
	C46.696743,85.663803 47.106148,86.660301 47.726715,88.242683 
	C48.232372,89.918877 48.526859,91.009178 48.572491,92.420990 
	C48.233578,117.033394 48.179211,141.324539 48.008438,165.614868 
	C47.987015,168.661499 49.448883,169.207458 52.004101,169.164841 
	C59.323933,169.042740 66.645866,169.046570 74.085510,168.954956 
	C74.204048,168.909058 74.439735,169.004395 74.471878,169.277771 
	C74.762199,170.039871 75.020386,170.528564 75.162445,171.113037 
	C75.046326,171.208801 74.826347,171.003296 74.826347,171.003296 
z"/>
<path fill="#3B3B3B" opacity="1.000000" stroke="none" 
	d="
M42.764431,174.039825 
	C42.072659,175.436539 41.229557,177.101257 39.969055,178.341858 
	C32.261513,185.927689 24.459295,193.417328 16.348675,200.963074 
	C16.074839,200.513412 15.962384,199.857178 16.232962,199.592484 
	C24.939230,191.075623 33.682487,182.596558 42.764431,174.039825 
z"/>
<path fill="#3B3B3B" opacity="1.000000" stroke="none" 
	d="
M15.706184,201.018402 
	C15.836152,201.309036 15.684257,201.608810 15.270071,201.949005 
	C15.146627,201.668793 15.285475,201.348175 15.706184,201.018402 
z"/>
<path fill="#3B3B3B" opacity="1.000000" stroke="none" 
	d="
M14.706793,202.017349 
	C14.835740,202.306747 14.682166,202.605591 14.267292,202.947784 
	C14.145419,202.669678 14.284844,202.348251 14.706793,202.017349 
z"/>
<path fill="#3B3B3B" opacity="1.000000" stroke="none" 
	d="
M13.707726,203.016083 
	C13.835659,203.304092 13.680320,203.602097 13.264635,203.946411 
	C13.144343,203.670502 13.284399,203.348282 13.707726,203.016083 
z"/>
<path fill="#3B3B3B" opacity="1.000000" stroke="none" 
	d="
M12.708631,204.014801 
	C12.835734,204.302048 12.678707,204.599823 12.261671,204.946442 
	C12.142608,204.671982 12.283553,204.348663 12.708631,204.014801 
z"/>
<path fill="#3B3B3B" opacity="1.000000" stroke="none" 
	d="
M11.709971,205.013229 
	C11.835851,205.299179 11.676541,205.596680 11.257680,205.946503 
	C11.140347,205.674133 11.282564,205.349457 11.709971,205.013229 
z"/>
<path fill="#EAF25E" opacity="1.000000" stroke="none" 
	d="
M48.821346,92.099487 
	C48.526859,91.009178 48.232372,89.918877 47.945572,88.485306 
	C47.989117,81.037468 48.024979,73.932892 48.093822,66.353165 
	C55.315102,64.160973 59.125771,68.988625 62.892147,73.656975 
	C70.318596,82.861931 77.846642,91.998207 84.926064,101.466881 
	C96.874649,117.448029 113.009834,128.855469 127.918045,141.614700 
	C133.589401,146.468536 139.301361,151.274918 146.332581,157.237366 
	C145.771591,152.253784 145.726486,148.569946 144.905106,145.068192 
	C137.329391,112.770897 127.176163,81.363358 111.958595,51.377777 
	C111.386894,50.161209 111.013725,49.236492 110.391022,48.150669 
	C106.909584,43.192024 103.490280,38.506855 100.519516,33.552715 
	C98.868141,30.798838 97.586815,27.689053 96.822861,24.571995 
	C95.930534,20.931152 98.247749,17.994627 101.424110,17.408621 
	C103.617653,17.003933 107.397682,18.281939 108.487473,20.037725 
	C112.661285,26.762310 116.080261,33.960556 119.680031,41.033386 
	C120.876793,43.384769 121.770370,45.890461 122.952324,48.660534 
	C123.190338,49.582966 123.278572,50.170471 123.641922,50.897205 
	C134.053329,82.800407 144.326401,114.521881 154.218552,146.361710 
	C156.377426,153.310516 157.175430,160.682129 158.033401,168.379272 
	C152.296524,168.950562 147.126404,169.001587 141.699463,168.958435 
	C141.001160,168.573242 140.559692,168.282211 139.920532,167.711151 
	C126.686989,156.315109 113.397057,145.480438 100.686996,134.003586 
	C88.077652,122.617683 76.052238,110.585098 63.770729,98.836136 
	C65.544121,107.071396 67.900490,114.802414 70.665230,122.384514 
	C76.341866,137.952255 82.237213,153.440262 87.578293,168.970154 
	C82.889282,168.987610 78.664505,168.996002 74.439735,169.004395 
	C74.439735,169.004395 74.204048,168.909058 74.081345,168.577087 
	C65.579552,142.863251 57.200447,117.481369 48.821346,92.099487 
z"/>
<path fill="#EAF25E" opacity="1.000000" stroke="none" 
	d="
M89.784912,172.100388 
	C90.483025,174.456558 91.396423,176.773880 91.830368,179.177734 
	C92.536568,183.089783 90.962250,185.876678 87.121101,187.295273 
	C83.227249,188.733322 81.701370,186.114151 80.381561,183.343781 
	C78.547577,179.494125 76.870537,175.569672 74.976334,171.340271 
	C74.826347,171.003296 75.046326,171.208801 75.608566,171.111572 
	C80.395096,170.999084 84.619385,170.983826 88.950180,171.203018 
	C89.299423,171.658432 89.542160,171.879410 89.784912,172.100388 
z"/>
<path fill="#3B3B3B" opacity="1.000000" stroke="none" 
	d="
M90.098740,171.800308 
	C89.542160,171.879410 89.299423,171.658432 88.987885,170.908539 
	C88.863098,169.988174 88.807106,169.596725 89.233582,169.161209 
	C104.631104,169.094452 119.546432,169.108810 134.460892,169.002670 
	C136.348984,168.989227 138.232559,168.343796 140.118225,167.991165 
	C140.559692,168.282211 141.001160,168.573242 141.794861,169.218475 
	C142.474182,170.014389 142.801270,170.456085 143.128357,170.897781 
	C127.525375,170.938339 111.922310,170.962494 96.319511,171.040024 
	C94.349823,171.049805 92.381523,171.339966 90.098740,171.800308 
z"/>
<path fill="#DFE65B" opacity="1.000000" stroke="none" 
	d="
M158.463562,168.762192 
	C160.769913,171.749542 158.135712,173.839966 156.454788,174.912949 
	C154.614670,176.087509 151.639664,176.480499 149.507736,175.910583 
	C147.527374,175.381165 146.006012,173.134720 144.605377,171.324677 
	C147.090591,171.011795 149.304413,171.313400 151.401871,170.947647 
	C153.809586,170.527771 156.114182,169.516541 158.463562,168.762192 
z"/>
<path fill="#EBF181" opacity="1.000000" stroke="none" 
	d="
M158.420593,168.775421 
	C156.114182,169.516541 153.809586,170.527771 151.401871,170.947647 
	C149.304413,171.313400 147.090591,171.011795 144.462677,171.019257 
	C143.997192,171.033417 143.561203,170.976212 143.344788,170.936996 
	C142.801270,170.456085 142.474182,170.014389 142.051697,169.312653 
	C147.126404,169.001587 152.296524,168.950562 157.962677,168.817139 
	C158.458725,168.734741 158.377640,168.788635 158.420593,168.775421 
z"/>
<path fill="#030401" opacity="1.000000" stroke="none" 
	d="
M48.572491,92.420990 
	C57.200447,117.481369 65.579552,142.863251 73.962814,168.623001 
	C66.645866,169.046570 59.323933,169.042740 52.004101,169.164841 
	C49.448883,169.207458 47.987015,168.661499 48.008438,165.614868 
	C48.179211,141.324539 48.233578,117.033394 48.572491,92.420990 
z"/>
<path fill="#EBF181" opacity="1.000000" stroke="none" 
	d="
M88.751114,169.205276 
	C88.807106,169.596725 88.863098,169.988174 88.881386,170.674103 
	C84.619385,170.983826 80.395096,170.999084 75.724686,171.015808 
	C75.020386,170.528564 74.762199,170.039871 74.471878,169.277771 
	C78.664505,168.996002 82.889282,168.987610 87.754860,169.033203 
	C88.395668,169.087189 88.751114,169.205276 88.751114,169.205276 
z"/>
<path fill="#030401" opacity="1.000000" stroke="none" 
	d="
M89.233582,169.161209 
	C88.751114,169.205276 88.395668,169.087189 88.219101,169.024139 
	C82.237213,153.440262 76.341866,137.952255 70.665230,122.384514 
	C67.900490,114.802414 65.544121,107.071396 63.770729,98.836136 
	C76.052238,110.585098 88.077652,122.617683 100.686996,134.003586 
	C113.397057,145.480438 126.686989,156.315109 139.920532,167.711151 
	C138.232559,168.343796 136.348984,168.989227 134.460892,169.002670 
	C119.546432,169.108810 104.631104,169.094452 89.233582,169.161209 
z"/>
</svg>