<svg version="1.1" id="home" xmlns="http://www.w3.org/2000/svg" xmlns:xlink="http://www.w3.org/1999/xlink" x="0px" y="0px"
	 width="100%" viewBox="0 0 464 464" enable-background="new 0 0 464 464" xml:space="preserve">
<path fill="#000000" opacity="1.000000" stroke="none" 
	d="
M137.000000,465.000000 
	C91.678513,465.000000 46.357025,465.000000 1.017769,465.000000 
	C1.017769,310.385590 1.017769,155.771194 1.017769,1.078392 
	C155.573944,1.078392 310.147949,1.078392 464.860962,1.078392 
	C464.860962,155.666580 464.860962,310.333282 464.860962,465.000000 
	C421.244263,465.000000 377.589111,465.000000 333.146545,464.634583 
	C335.868866,463.837372 339.416840,463.604889 342.882080,462.940887 
	C362.488708,459.183807 379.491150,450.902588 392.470917,435.118134 
	C404.077209,421.003967 411.010986,405.292480 411.003723,386.808167 
	C410.990479,353.156006 411.002625,319.503845 410.998230,285.851685 
	C410.997070,276.969543 404.901001,271.005646 395.844086,271.000031 
	C385.258606,270.993469 379.005493,276.423889 379.002777,285.662842 
	C378.994904,312.651215 379.074005,339.639923 378.954102,366.627747 
	C378.918976,374.540436 378.738220,382.493713 377.902527,390.351654 
	C376.723785,401.435394 371.105804,410.726776 363.170502,418.065491 
	C353.152924,427.329895 340.647461,431.026581 327.006866,431.015411 
	C278.694397,430.975830 230.381638,431.082764 182.069473,430.954071 
	C165.658752,430.910339 149.233734,430.665222 132.844818,429.888275 
	C121.110397,429.331970 111.325974,423.421997 103.729301,414.962830 
	C94.393402,404.566925 90.815979,391.773529 90.925926,377.715271 
	C91.165649,347.063690 91.003502,316.408936 90.997810,285.755493 
	C90.996170,276.918762 84.870918,271.004669 75.747925,271.000000 
	C65.196861,270.994598 59.003941,276.440826 59.002300,285.759003 
	C58.996433,319.077972 59.010731,352.396942 58.996372,385.715912 
	C58.986145,409.440552 68.675217,428.568939 86.414322,443.941101 
	C100.251816,455.932281 116.158684,462.602966 134.577530,463.084106 
	C135.401138,463.105621 136.193237,464.333832 137.000000,465.000000 
M211.500000,78.000008 
	C217.864822,71.643173 224.401337,65.446098 230.524811,58.864712 
	C233.773895,55.372654 235.969498,55.304790 239.370972,58.756184 
	C257.497528,77.148697 275.832764,95.335503 294.094482,113.594788 
	C339.573090,159.067261 385.074219,204.517273 430.487122,250.055252 
	C434.312256,253.890915 438.951599,256.232788 443.918793,255.758835 
	C450.834290,255.099014 456.572693,251.414734 458.828064,244.293701 
	C461.028168,237.347183 458.955627,231.408447 453.805725,226.266647 
	C408.883759,181.415649 364.011993,136.514359 319.126984,91.626373 
	C295.094238,67.592033 271.074341,43.544849 247.027588,19.524549 
	C240.302490,12.806862 230.119232,12.458360 223.601166,18.969616 
	C154.056396,88.441940 84.562134,157.964798 15.042151,227.461945 
	C10.577124,231.925491 9.555853,239.478409 11.867039,245.707825 
	C15.764530,256.212830 31.097839,258.567657 39.295010,250.335175 
	C96.428497,192.955719 153.743301,135.756775 211.500000,78.000008 
z"/>
<path fill="currentColor" opacity="1.000000" stroke="none" 
	d="
M137.333328,465.000000 
	C136.193237,464.333832 135.401138,463.105621 134.577530,463.084106 
	C116.158684,462.602966 100.251816,455.932281 86.414322,443.941101 
	C68.675217,428.568939 58.986145,409.440552 58.996372,385.715912 
	C59.010731,352.396942 58.996433,319.077972 59.002300,285.759003 
	C59.003941,276.440826 65.196861,270.994598 75.747925,271.000000 
	C84.870918,271.004669 90.996170,276.918762 90.997810,285.755493 
	C91.003502,316.408936 91.165649,347.063690 90.925926,377.715271 
	C90.815979,391.773529 94.393402,404.566925 103.729301,414.962830 
	C111.325974,423.421997 121.110397,429.331970 132.844818,429.888275 
	C149.233734,430.665222 165.658752,430.910339 182.069473,430.954071 
	C230.381638,431.082764 278.694397,430.975830 327.006866,431.015411 
	C340.647461,431.026581 353.152924,427.329895 363.170502,418.065491 
	C371.105804,410.726776 376.723785,401.435394 377.902527,390.351654 
	C378.738220,382.493713 378.918976,374.540436 378.954102,366.627747 
	C379.074005,339.639923 378.994904,312.651215 379.002777,285.662842 
	C379.005493,276.423889 385.258606,270.993469 395.844086,271.000031 
	C404.901001,271.005646 410.997070,276.969543 410.998230,285.851685 
	C411.002625,319.503845 410.990479,353.156006 411.003723,386.808167 
	C411.010986,405.292480 404.077209,421.003967 392.470917,435.118134 
	C379.491150,450.902588 362.488708,459.183807 342.882080,462.940887 
	C339.416840,463.604889 335.868866,463.837372 332.679565,464.634583 
	C332.555542,465.000000 332.111115,465.000000 331.654114,464.629089 
	C329.962280,463.838776 328.286926,463.075806 326.603088,463.056488 
	C316.625092,462.942017 306.645142,463.000000 296.665833,463.000000 
	C269.043304,463.000000 241.420425,462.917847 213.798401,463.036652 
	C201.059158,463.091461 188.321823,463.733978 175.583176,463.749847 
	C164.527588,463.763641 153.472000,463.209534 142.414429,463.091156 
	C141.283218,463.079010 140.138458,464.333344 139.000000,465.000000 
	C138.555557,465.000000 138.111099,465.000000 137.333328,465.000000 
z"/>
<path fill="currentColor" opacity="1.000000" stroke="none" 
	d="
M211.250000,78.250000 
	C153.743301,135.756775 96.428497,192.955719 39.295010,250.335175 
	C31.097839,258.567657 15.764530,256.212830 11.867039,245.707825 
	C9.555853,239.478409 10.577124,231.925491 15.042151,227.461945 
	C84.562134,157.964798 154.056396,88.441940 223.601166,18.969616 
	C230.119232,12.458360 240.302490,12.806862 247.027588,19.524549 
	C271.074341,43.544849 295.094238,67.592033 319.126984,91.626373 
	C364.011993,136.514359 408.883759,181.415649 453.805725,226.266647 
	C458.955627,231.408447 461.028168,237.347183 458.828064,244.293701 
	C456.572693,251.414734 450.834290,255.099014 443.918793,255.758835 
	C438.951599,256.232788 434.312256,253.890915 430.487122,250.055252 
	C385.074219,204.517273 339.573090,159.067261 294.094482,113.594788 
	C275.832764,95.335503 257.497528,77.148697 239.370972,58.756184 
	C235.969498,55.304790 233.773895,55.372654 230.524811,58.864712 
	C224.401337,65.446098 217.864822,71.643173 211.250000,78.250000 
z"/>
</svg>