<svg version="1.0" xmlns="http://www.w3.org/2000/svg" viewBox="81 48.1 512 511.9"><path d="M515 86.9c-86.3 43.2-84.4 42.4-99.3 40.3-6.5-1-13.8-4.3-77.7-36.1-38.8-19.3-72.6-35.6-75.3-36.2-2.6-.6-9-1-14.3-.7l-9.5.4-79 39.4L81 133.5V560l77.8-38.9c86.5-43.2 84.6-42.4 99.5-40.3 6.5 1 13.8 4.3 77.7 36.1 38.8 19.3 72.6 35.6 75.3 36.2 2.6.6 9 1 14.3.7l9.5-.4 79-39.4 78.9-39.5V261.3c0-117.3-.1-213.3-.2-213.2-.2 0-35.2 17.5-77.8 38.8zM230 272.5V438l-53 26.5-53 26.5V159.5l52.3-26.2c28.7-14.4 52.5-26.2 53-26.2.4-.1.7 74.4.7 165.4zm107.5-133.8 63.5 31.8v165.2c0 90.9-.2 165.3-.5 165.3s-29.1-14.3-64-31.7L273 437.5V272.3c0-90.9.2-165.3.5-165.3s29.1 14.3 64 31.7zM550 282.8v165.7l-52.5 26.3c-28.9 14.4-52.7 26.2-53 26.2-.3 0-.5-74.4-.5-165.3V170.5l52.8-26.6c29-14.7 52.8-26.7 53-26.8.1 0 .2 74.5.2 165.7z"/></svg>