<svg width="400" height="400" viewBox="0 0 400 400" fill="none" xmlns="http://www.w3.org/2000/svg">
<g opacity="0.4">
<path d="M204.264 77.4285L233.637 5.02084C235.639 0.0809198 243.027 1.54954 242.983 6.89L242.404 85.0386C242.404 89.4 247.655 91.5807 250.726 88.4654L305.555 32.8357C309.293 29.0084 315.568 33.1917 313.476 38.1317L283.036 110.094C281.345 114.1 285.395 118.149 289.4 116.458L361.363 86.0177C366.302 83.926 370.486 90.2011 366.658 93.9394L311.029 148.768C307.913 151.839 310.094 157.09 314.456 157.09L392.604 156.512C397.945 156.512 399.413 163.855 394.473 165.858L322.066 195.23C318.016 196.877 318.016 202.573 322.066 204.22L394.473 233.592C399.413 235.595 397.945 242.983 392.604 242.938L314.456 242.36C310.094 242.36 307.913 247.611 311.029 250.682L366.658 305.51C370.486 309.249 366.302 315.524 361.363 313.432L289.4 282.991C285.395 281.3 281.345 285.35 283.036 289.356L313.476 361.318C315.568 366.258 309.293 370.441 305.555 366.614L250.726 310.984C247.655 307.869 242.404 310.05 242.404 314.411L242.983 392.56C242.983 397.9 235.639 399.369 233.637 394.429L204.264 322.021C202.618 317.971 196.921 317.971 195.274 322.021L165.902 394.429C163.899 399.369 156.512 397.9 156.556 392.56L157.135 314.411C157.135 310.05 151.883 307.869 148.813 310.984L93.9839 366.614C90.2456 370.441 83.9705 366.258 86.0622 361.318L116.503 289.356C118.194 285.35 114.144 281.3 110.139 282.991L38.1761 313.432C33.2362 315.524 29.0529 309.249 32.8802 305.51L88.5099 250.682C91.6252 247.611 89.4445 242.36 85.0831 242.36L6.9345 242.938C1.59405 242.938 0.125425 235.595 5.06534 233.592L77.473 204.22C81.5228 202.573 81.5228 196.877 77.473 195.23L5.02084 165.902C0.0809204 163.899 1.54954 156.512 6.89 156.556L85.0386 157.135C89.4 157.135 91.5807 151.883 88.4654 148.813L32.8357 93.9394C29.0084 90.2011 33.1917 83.926 38.1316 86.0177L110.094 116.458C114.1 118.149 118.149 114.1 116.458 110.094L86.0177 38.1317C83.926 33.1917 90.2011 29.0084 93.9394 32.8357L148.768 88.4654C151.839 91.5807 157.09 89.4 157.09 85.0386L156.512 6.89C156.512 1.54954 163.855 0.0809198 165.857 5.02084L195.23 77.4285C196.877 81.4783 202.573 81.4783 204.22 77.4285H204.264Z" stroke="#EDF738" stroke-miterlimit="10"/>
<path d="M203.062 117.531L222.869 68.7038C224.22 65.3726 229.202 66.363 229.172 69.9643L228.781 122.663C228.781 125.604 232.323 127.074 234.393 124.974L271.366 87.4604C273.887 84.8795 278.119 87.7005 276.708 91.0317L256.181 139.559C255.041 142.26 257.772 144.991 260.473 143.85L309 123.323C312.331 121.913 315.152 126.144 312.571 128.665L275.058 165.638C272.957 167.709 274.428 171.25 277.369 171.25L330.067 170.86C333.668 170.86 334.659 175.812 331.328 177.162L282.5 196.969C279.769 198.079 279.769 201.921 282.5 203.031L331.328 222.838C334.659 224.189 333.668 229.17 330.067 229.14L277.369 228.75C274.428 228.75 272.957 232.291 275.058 234.362L312.571 271.335C315.152 273.856 312.331 278.088 309 276.677L260.473 256.15C257.772 255.009 255.041 257.74 256.181 260.441L276.708 308.968C278.119 312.3 273.887 315.121 271.366 312.54L234.393 275.026C232.323 272.926 228.781 274.396 228.781 277.337L229.172 330.036C229.172 333.637 224.22 334.627 222.869 331.296L203.062 282.469C201.952 279.738 198.111 279.738 197 282.469L177.193 331.296C175.843 334.627 170.861 333.637 170.891 330.036L171.281 277.337C171.281 274.396 167.74 272.926 165.669 275.026L128.696 312.54C126.175 315.121 121.944 312.3 123.354 308.968L143.882 260.441C145.022 257.74 142.291 255.009 139.59 256.15L91.0629 276.677C87.7317 278.088 84.9107 273.856 87.4917 271.335L125.005 234.362C127.106 232.291 125.635 228.75 122.694 228.75L69.9955 229.14C66.3942 229.14 65.4039 224.189 68.735 222.838L117.562 203.031C120.293 201.921 120.293 198.079 117.562 196.969L68.705 177.192C65.3739 175.842 66.3642 170.86 69.9655 170.89L122.664 171.28C125.605 171.28 127.076 167.739 124.975 165.668L87.4616 128.665C84.8807 126.144 87.7017 121.913 91.0329 123.323L139.56 143.85C142.261 144.991 144.992 142.26 143.852 139.559L123.324 91.0317C121.914 87.7005 126.145 84.8795 128.666 87.4604L165.639 124.974C167.71 127.074 171.251 125.604 171.251 122.663L170.861 69.9643C170.861 66.363 175.813 65.3726 177.163 68.7038L196.97 117.531C198.081 120.262 201.922 120.262 203.032 117.531H203.062Z" stroke="#EDF738" stroke-miterlimit="10"/>
<path d="M201.529 158.765L211.433 134.352C212.108 132.686 214.599 133.181 214.584 134.982L214.389 161.331C214.389 162.802 216.159 163.537 217.195 162.487L235.681 143.73C236.942 142.44 239.057 143.85 238.352 145.516L228.089 169.779C227.518 171.13 228.884 172.495 230.234 171.925L254.498 161.661C256.163 160.956 257.574 163.072 256.284 164.332L237.527 182.819C236.477 183.854 237.212 185.625 238.682 185.625L265.032 185.43C266.832 185.43 267.327 187.906 265.662 188.581L241.248 198.484C239.883 199.04 239.883 200.96 241.248 201.515L265.662 211.419C267.327 212.094 266.832 214.585 265.032 214.57L238.682 214.375C237.212 214.375 236.477 216.146 237.527 217.181L256.284 235.667C257.574 236.928 256.163 239.044 254.498 238.338L230.234 228.075C228.884 227.505 227.518 228.87 228.089 230.221L238.352 254.484C239.057 256.15 236.942 257.56 235.681 256.27L217.195 237.513C216.159 236.463 214.389 237.198 214.389 238.669L214.584 265.018C214.584 266.818 212.108 267.314 211.433 265.648L201.529 241.234C200.974 239.869 199.053 239.869 198.498 241.234L188.595 265.648C187.919 267.314 185.429 266.818 185.444 265.018L185.639 238.669C185.639 237.198 183.868 236.463 182.833 237.513L164.346 256.27C163.086 257.56 160.97 256.15 161.675 254.484L171.939 230.221C172.509 228.87 171.144 227.505 169.793 228.075L145.53 238.338C143.864 239.044 142.453 236.928 143.744 235.667L162.5 217.181C163.551 216.146 162.816 214.375 161.345 214.375L134.996 214.57C133.195 214.57 132.7 212.094 134.366 211.419L158.779 201.515C160.145 200.96 160.145 199.04 158.779 198.484L134.351 188.596C132.685 187.921 133.18 185.43 134.981 185.445L161.33 185.64C162.801 185.64 163.536 183.869 162.485 182.834L143.729 164.332C142.438 163.072 143.849 160.956 145.515 161.661L169.778 171.925C171.129 172.495 172.494 171.13 171.924 169.779L161.66 145.516C160.955 143.85 163.071 142.44 164.331 143.73L182.818 162.487C183.853 163.537 185.624 162.802 185.624 161.331L185.429 134.982C185.429 133.181 187.904 132.686 188.58 134.352L198.483 158.765C199.038 160.131 200.959 160.131 201.514 158.765H201.529Z" stroke="#EDF738" stroke-miterlimit="10"/>
</g>
</svg>
